<svg width="40" height="40" viewBox="0 0 40 40" fill="none" xmlns="http://www.w3.org/2000/svg">
<circle cx="20" cy="20" r="20" fill="#C4C4C4"/>
<path d="M24.2492 13.0031L22.3041 13C20.1188 13 18.7066 14.4489 18.7066 16.6915V18.3936H16.7508C16.5818 18.3936 16.4449 18.5306 16.4449 18.6996V21.1656C16.4449 21.3346 16.582 21.4715 16.7508 21.4715H18.7066V27.6941C18.7066 27.8631 18.8434 28 19.0124 28H21.5641C21.7331 28 21.87 27.863 21.87 27.6941V21.4715H24.1567C24.3257 21.4715 24.4626 21.3346 24.4626 21.1656L24.4635 18.6996C24.4635 18.6184 24.4312 18.5407 24.3739 18.4833C24.3167 18.4259 24.2386 18.3936 24.1575 18.3936H21.87V16.9507C21.87 16.2572 22.0352 15.9052 22.9386 15.9052L24.2489 15.9047C24.4178 15.9047 24.5546 15.7677 24.5546 15.5989V13.309C24.5546 13.1403 24.4179 13.0034 24.2492 13.0031Z" fill="black"/>
</svg>
