<svg width="109" height="50" viewBox="0 0 109 50" fill="none" xmlns="http://www.w3.org/2000/svg">
<path d="M15.2 0.119998C17.0133 0.119998 18.4933 0.373332 19.64 0.88C20.7867 1.38667 21.8133 2 22.72 2.72C23.04 2.96 23.3067 3.08 23.52 3.08C24.0267 3.08 24.36 2.28 24.52 0.68H25.44C25.3867 1.72 25.3467 2.98667 25.32 4.48C25.2933 5.94667 25.28 7.90667 25.28 10.36H24.36C24.1733 8.76 23.88 7.37333 23.48 6.2C23.1067 5 22.4 3.97333 21.36 3.12C20.72 2.50667 19.92 2.02667 18.96 1.68C18.0267 1.33333 17.08 1.16 16.12 1.16C14.6533 1.16 13.4 1.54666 12.36 2.32C11.32 3.06666 10.4667 4.09333 9.8 5.4C9.13333 6.70667 8.64 8.18667 8.32 9.84C8 11.4667 7.84 13.16 7.84 14.92C7.84 19.72 8.49333 23.2267 9.8 25.44C11.1333 27.6533 13.04 28.76 15.52 28.76C16.16 28.76 16.72 28.68 17.2 28.52C17.68 28.36 18.0667 28.1733 18.36 27.96C18.7333 27.6933 18.9867 27.4133 19.12 27.12C19.2533 26.8 19.32 26.3867 19.32 25.88V21.96C19.32 20.7333 19.2133 19.8267 19 19.24C18.8133 18.6267 18.4267 18.2133 17.84 18C17.2533 17.7867 16.4 17.6667 15.28 17.64V16.84C15.84 16.8667 16.5067 16.8933 17.28 16.92C18.08 16.92 18.9067 16.9333 19.76 16.96C20.6133 16.96 21.4 16.96 22.12 16.96C23.24 16.96 24.2667 16.9467 25.2 16.92C26.1333 16.8933 26.8933 16.8667 27.48 16.84V17.64C26.9733 17.6667 26.5867 17.76 26.32 17.92C26.08 18.08 25.9067 18.4 25.8 18.88C25.72 19.36 25.68 20.0933 25.68 21.08V29H24.88C24.8533 28.5467 24.7467 28.0533 24.56 27.52C24.4 26.9867 24.12 26.72 23.72 26.72C23.5333 26.72 23.28 26.7733 22.96 26.88C22.6667 26.96 22.2 27.1867 21.56 27.56C20.5733 28.12 19.5333 28.6 18.44 29C17.3467 29.3733 16.2 29.56 15 29.56C11.9067 29.56 9.29333 28.9867 7.16 27.84C5.02667 26.6933 3.41333 25.0533 2.32 22.92C1.25333 20.76 0.72 18.1733 0.72 15.16C0.72 12.12 1.33333 9.48 2.56 7.24C3.81333 5 5.52 3.25333 7.68 2C9.86667 0.746665 12.3733 0.119998 15.2 0.119998ZM34.8159 29.28C33.6159 29.28 32.6159 29.0533 31.8159 28.6C31.0159 28.1467 30.4293 27.5467 30.0559 26.8C29.6826 26.0267 29.4959 25.1867 29.4959 24.28C29.4959 23.1333 29.7493 22.2 30.2559 21.48C30.7893 20.76 31.4693 20.1733 32.2959 19.72C33.1226 19.2667 33.9893 18.8933 34.8959 18.6C35.8293 18.3067 36.7093 18.0267 37.5359 17.76C38.3893 17.4667 39.0693 17.1333 39.5759 16.76C40.1093 16.36 40.3759 15.8533 40.3759 15.24V12.12C40.3759 11.4267 40.2559 10.8133 40.0159 10.28C39.8026 9.72 39.4559 9.29333 38.9759 9C38.5226 8.70667 37.9226 8.56 37.1759 8.56C36.6426 8.56 36.1093 8.64 35.5759 8.8C35.0426 8.93333 34.6026 9.17333 34.2559 9.52C35.0026 9.78667 35.5759 10.2 35.9759 10.76C36.4026 11.2933 36.6159 11.9067 36.6159 12.6C36.6159 13.5067 36.2959 14.2267 35.6559 14.76C35.0426 15.2933 34.3093 15.56 33.4559 15.56C32.4959 15.56 31.7626 15.2667 31.2559 14.68C30.7759 14.0667 30.5359 13.3333 30.5359 12.48C30.5359 11.7067 30.7226 11.0667 31.0959 10.56C31.4959 10.0533 32.0426 9.57333 32.7359 9.12C33.4826 8.69333 34.3759 8.36 35.4159 8.12C36.4826 7.88 37.6293 7.76 38.8559 7.76C40.0826 7.76 41.1893 7.89333 42.1759 8.16C43.1626 8.4 43.9893 8.85333 44.6559 9.52C45.2693 10.1333 45.6693 10.8933 45.8559 11.8C46.0426 12.68 46.1359 13.8 46.1359 15.16V26.04C46.1359 26.7067 46.2026 27.1733 46.3359 27.44C46.4693 27.68 46.6959 27.8 47.0159 27.8C47.2559 27.8 47.4826 27.7333 47.6959 27.6C47.9359 27.4667 48.1893 27.3067 48.4559 27.12L48.8559 27.8C48.2959 28.28 47.6426 28.6533 46.8959 28.92C46.1759 29.16 45.3626 29.28 44.4559 29.28C43.4693 29.28 42.6826 29.1467 42.0959 28.88C41.5093 28.5867 41.0826 28.2 40.8159 27.72C40.5759 27.24 40.4559 26.68 40.4559 26.04C39.8159 27.0533 39.0426 27.8533 38.1359 28.44C37.2293 29 36.1226 29.28 34.8159 29.28ZM37.6559 26.72C38.1893 26.72 38.6693 26.6 39.0959 26.36C39.5493 26.0933 39.9759 25.6667 40.3759 25.08V16.88C40.1359 17.28 39.8026 17.64 39.3759 17.96C38.9493 18.28 38.4959 18.6133 38.0159 18.96C37.5359 19.28 37.0693 19.64 36.6159 20.04C36.1893 20.44 35.8426 20.9333 35.5759 21.52C35.3093 22.1067 35.1759 22.8133 35.1759 23.64C35.1759 24.68 35.4026 25.4533 35.8559 25.96C36.3093 26.4667 36.9093 26.72 37.6559 26.72ZM64.5191 7.76C65.6391 7.76 66.5457 7.90667 67.2391 8.2C67.9324 8.46666 68.4924 8.84 68.9191 9.32C69.3457 9.82667 69.6524 10.4933 69.8391 11.32C70.0257 12.12 70.1191 13.1867 70.1191 14.52V25.28C70.1191 26.4 70.2924 27.16 70.6391 27.56C70.9857 27.96 71.5857 28.16 72.4391 28.16V29C71.9591 28.9733 71.2257 28.9467 70.2391 28.92C69.2791 28.8667 68.3324 28.84 67.3991 28.84C66.4391 28.84 65.4924 28.8667 64.5591 28.92C63.6257 28.9467 62.9191 28.9733 62.4391 29V28.16C63.1591 28.16 63.6524 27.96 63.9191 27.56C64.2124 27.16 64.3591 26.4 64.3591 25.28V12.84C64.3591 12.1733 64.3057 11.6 64.1991 11.12C64.0924 10.6133 63.8791 10.2267 63.5591 9.96C63.2657 9.66667 62.8124 9.52 62.1991 9.52C61.5057 9.52 60.8657 9.72 60.2791 10.12C59.6924 10.52 59.2124 11.08 58.8391 11.8C58.4924 12.4933 58.3191 13.28 58.3191 14.16V25.28C58.3191 26.4 58.4657 27.16 58.7591 27.56C59.0524 27.96 59.5457 28.16 60.2391 28.16V29C59.8124 28.9733 59.1457 28.9467 58.2391 28.92C57.3591 28.8667 56.4524 28.84 55.5191 28.84C54.5057 28.84 53.4657 28.8667 52.3991 28.92C51.3324 28.9467 50.5324 28.9733 49.9991 29V28.16C50.9324 28.16 51.5857 27.96 51.9591 27.56C52.3591 27.16 52.5591 26.4 52.5591 25.28V12.68C52.5591 11.48 52.3724 10.6 51.9991 10.04C51.6524 9.45333 50.9857 9.16 49.9991 9.16V8.32C50.8524 8.4 51.6791 8.44 52.4791 8.44C53.5991 8.44 54.6391 8.4 55.5991 8.32C56.5857 8.21333 57.4924 8.06667 58.3191 7.88V11.48C58.9591 10.1467 59.8257 9.2 60.9191 8.64C62.0124 8.05333 63.2124 7.76 64.5191 7.76ZM76.5591 7.76C77.6791 7.76 78.5857 7.90667 79.2791 8.2C79.9724 8.46666 80.5324 8.84 80.9591 9.32C81.3857 9.82667 81.6924 10.4933 81.8791 11.32C82.0657 12.12 82.1591 13.1867 82.1591 14.52V25.28C82.1591 26.4 82.3457 27.16 82.7191 27.56C83.1191 27.96 83.7857 28.16 84.7191 28.16V29C84.2124 28.9733 83.4524 28.9467 82.4391 28.92C81.4257 28.8667 80.4257 28.84 79.4391 28.84C78.4791 28.84 77.5324 28.8667 76.5991 28.92C75.6657 28.9467 74.9591 28.9733 74.4791 29V28.16C75.1991 28.16 75.6924 27.96 75.9591 27.56C76.2524 27.16 76.3991 26.4 76.3991 25.28V12.84C76.3991 12.1733 76.3324 11.6 76.1991 11.12C76.0924 10.6133 75.8657 10.2267 75.5191 9.96C75.1991 9.66667 74.6924 9.52 73.9991 9.52C73.3057 9.52 72.6657 9.73333 72.0791 10.16C71.4924 10.5867 71.0124 11.16 70.6391 11.88C70.2924 12.6 70.1057 13.4 70.0791 14.28L69.8791 11.84C70.5991 10.24 71.5457 9.16 72.7191 8.6C73.9191 8.04 75.1991 7.76 76.5591 7.76ZM96.53 7.76C98.8767 7.76 100.717 8.45333 102.05 9.84C103.383 11.2267 104.05 13.4933 104.05 16.64H90.89L90.81 15.88H99.01C99.0367 14.5733 98.9567 13.3733 98.77 12.28C98.5833 11.16 98.29 10.2667 97.89 9.6C97.49 8.93333 96.9567 8.6 96.29 8.6C95.3567 8.6 94.5567 9.18667 93.89 10.36C93.25 11.5333 92.8633 13.48 92.73 16.2L92.85 16.44C92.8233 16.76 92.7967 17.0933 92.77 17.44C92.77 17.7867 92.77 18.1467 92.77 18.52C92.77 20.36 93.0233 21.8533 93.53 23C94.0633 24.1467 94.73 24.9867 95.53 25.52C96.33 26.0267 97.1433 26.28 97.97 26.28C98.53 26.28 99.1033 26.2 99.69 26.04C100.303 25.8533 100.917 25.5333 101.53 25.08C102.143 24.6 102.717 23.9333 103.25 23.08L103.97 23.32C103.65 24.3333 103.143 25.32 102.45 26.28C101.757 27.24 100.877 28.0267 99.81 28.64C98.7433 29.2533 97.4633 29.56 95.97 29.56C94.1567 29.56 92.5567 29.1733 91.17 28.4C89.7833 27.6267 88.69 26.4533 87.89 24.88C87.1167 23.3067 86.73 21.3067 86.73 18.88C86.73 16.4 87.1433 14.3333 87.97 12.68C88.8233 11.0267 89.9833 9.8 91.45 9C92.9433 8.17333 94.6367 7.76 96.53 7.76ZM27.8918 30.592C28.3425 30.6093 28.9318 30.6267 29.6598 30.644C30.3878 30.6613 31.1158 30.67 31.8438 30.67C32.6758 30.67 33.4818 30.6613 34.2618 30.644C35.0418 30.6267 35.5965 30.618 35.9258 30.618C38.0751 30.618 39.6785 30.9993 40.7358 31.762C41.8105 32.5247 42.3478 33.504 42.3478 34.7C42.3478 35.3067 42.1658 35.922 41.8018 36.546C41.4378 37.17 40.8745 37.7247 40.1118 38.21C39.3491 38.6953 38.3611 39.0507 37.1478 39.276V39.328C38.7771 39.4493 40.0685 39.744 41.0218 40.212C41.9751 40.68 42.6598 41.2433 43.0758 41.902C43.4918 42.5607 43.6998 43.2453 43.6998 43.956C43.6998 45.048 43.4138 45.9667 42.8418 46.712C42.2698 47.4573 41.4465 48.0293 40.3718 48.428C39.2971 48.8093 38.0145 49 36.5238 49C36.1078 49 35.5098 48.9913 34.7298 48.974C33.9498 48.9393 33.0051 48.922 31.8958 48.922C31.1331 48.922 30.3878 48.9307 29.6598 48.948C28.9318 48.948 28.3425 48.9653 27.8918 49V48.48C28.4465 48.4453 28.8625 48.376 29.1398 48.272C29.4171 48.168 29.5991 47.96 29.6858 47.648C29.7898 47.336 29.8418 46.868 29.8418 46.244V33.348C29.8418 32.7067 29.7898 32.2387 29.6858 31.944C29.5991 31.632 29.4085 31.424 29.1138 31.32C28.8365 31.1987 28.4291 31.1293 27.8918 31.112V30.592ZM35.5878 31.112C34.9118 31.112 34.4698 31.2593 34.2618 31.554C34.0711 31.8487 33.9758 32.4467 33.9758 33.348V46.244C33.9758 46.8507 34.0191 47.31 34.1058 47.622C34.2098 47.934 34.3831 48.142 34.6258 48.246C34.8858 48.35 35.2671 48.402 35.7698 48.402C37.0178 48.402 37.9278 48.012 38.4998 47.232C39.0891 46.4347 39.3838 45.308 39.3838 43.852C39.3838 42.5173 39.0458 41.486 38.3698 40.758C37.7111 40.03 36.6105 39.666 35.0678 39.666H32.8578C32.8578 39.666 32.8578 39.5967 32.8578 39.458C32.8578 39.302 32.8578 39.224 32.8578 39.224H35.0938C35.9085 39.224 36.5325 39.0333 36.9658 38.652C37.3991 38.2533 37.7025 37.7333 37.8758 37.092C38.0491 36.4333 38.1358 35.7313 38.1358 34.986C38.1358 33.7033 37.9365 32.7413 37.5378 32.1C37.1391 31.4413 36.4891 31.112 35.5878 31.112ZM54.7986 30.228C56.6359 30.228 58.2392 30.6007 59.6086 31.346C60.9952 32.0913 62.0699 33.166 62.8326 34.57C63.5952 35.9567 63.9766 37.6467 63.9766 39.64C63.9766 41.5813 63.5866 43.28 62.8066 44.736C62.0266 46.192 60.9346 47.3273 59.5306 48.142C58.1439 48.9567 56.5579 49.364 54.7726 49.364C52.9352 49.364 51.3232 48.9913 49.9366 48.246C48.5672 47.5007 47.5012 46.426 46.7386 45.022C45.9759 43.618 45.5946 41.928 45.5946 39.952C45.5946 38.0107 45.9846 36.312 46.7646 34.856C47.5619 33.4 48.6452 32.2647 50.0146 31.45C51.4012 30.6353 52.9959 30.228 54.7986 30.228ZM54.6946 30.696C53.7239 30.696 52.8746 31.086 52.1466 31.866C51.4359 32.646 50.8812 33.7207 50.4826 35.09C50.1012 36.4593 49.9106 38.0453 49.9106 39.848C49.9106 41.6853 50.1272 43.2887 50.5606 44.658C51.0112 46.01 51.6092 47.0587 52.3546 47.804C53.1172 48.532 53.9579 48.896 54.8766 48.896C55.8472 48.896 56.6879 48.506 57.3986 47.726C58.1266 46.946 58.6812 45.8713 59.0626 44.502C59.4612 43.1153 59.6606 41.5293 59.6606 39.744C59.6606 37.8893 59.4352 36.286 58.9846 34.934C58.5512 33.582 57.9532 32.542 57.1906 31.814C56.4452 31.0687 55.6132 30.696 54.6946 30.696ZM75.4158 30.228C77.2531 30.228 78.8564 30.6007 80.2258 31.346C81.6124 32.0913 82.6871 33.166 83.4498 34.57C84.2124 35.9567 84.5938 37.6467 84.5938 39.64C84.5938 41.5813 84.2038 43.28 83.4238 44.736C82.6438 46.192 81.5518 47.3273 80.1478 48.142C78.7611 48.9567 77.1751 49.364 75.3898 49.364C73.5524 49.364 71.9404 48.9913 70.5538 48.246C69.1844 47.5007 68.1184 46.426 67.3558 45.022C66.5931 43.618 66.2118 41.928 66.2118 39.952C66.2118 38.0107 66.6018 36.312 67.3818 34.856C68.1791 33.4 69.2624 32.2647 70.6318 31.45C72.0184 30.6353 73.6131 30.228 75.4158 30.228ZM75.3118 30.696C74.3411 30.696 73.4918 31.086 72.7638 31.866C72.0531 32.646 71.4984 33.7207 71.0998 35.09C70.7184 36.4593 70.5278 38.0453 70.5278 39.848C70.5278 41.6853 70.7444 43.2887 71.1778 44.658C71.6284 46.01 72.2264 47.0587 72.9718 47.804C73.7344 48.532 74.5751 48.896 75.4938 48.896C76.4644 48.896 77.3051 48.506 78.0158 47.726C78.7438 46.946 79.2984 45.8713 79.6798 44.502C80.0784 43.1153 80.2778 41.5293 80.2778 39.744C80.2778 37.8893 80.0524 36.286 79.6018 34.934C79.1684 33.582 78.5704 32.542 77.8078 31.814C77.0624 31.0687 76.2304 30.696 75.3118 30.696ZM108.752 30.592V31.112C108.197 31.1293 107.781 31.1987 107.504 31.32C107.226 31.424 107.036 31.632 106.932 31.944C106.845 32.2387 106.802 32.7067 106.802 33.348V46.244C106.802 46.868 106.845 47.336 106.932 47.648C107.036 47.96 107.226 48.168 107.504 48.272C107.781 48.376 108.197 48.4453 108.752 48.48V49C108.266 48.9653 107.651 48.948 106.906 48.948C106.178 48.9307 105.432 48.922 104.67 48.922C103.838 48.922 103.058 48.9307 102.33 48.948C101.602 48.948 101.012 48.9653 100.562 49V48.48C101.151 48.4453 101.593 48.376 101.888 48.272C102.2 48.168 102.408 47.96 102.512 47.648C102.616 47.336 102.668 46.868 102.668 46.244V32.178H102.85L96.4018 49.026H95.9858L88.9658 32.282V44.736C88.9658 45.6893 89.0178 46.426 89.1218 46.946C89.2258 47.4487 89.4511 47.8127 89.7978 48.038C90.1618 48.246 90.7251 48.3933 91.4878 48.48V49C91.1585 48.9653 90.7251 48.948 90.1878 48.948C89.6505 48.9307 89.1478 48.922 88.6798 48.922C88.2811 48.922 87.8738 48.9307 87.4578 48.948C87.0418 48.948 86.6951 48.9653 86.4178 49V48.48C86.9725 48.3933 87.3885 48.246 87.6658 48.038C87.9431 47.83 88.1251 47.492 88.2118 47.024C88.3158 46.5387 88.3678 45.88 88.3678 45.048V33.348C88.3678 32.7067 88.3158 32.2387 88.2118 31.944C88.1251 31.632 87.9345 31.424 87.6398 31.32C87.3625 31.1987 86.9551 31.1293 86.4178 31.112V30.592C86.6951 30.6093 87.0418 30.6267 87.4578 30.644C87.8738 30.6613 88.2811 30.67 88.6798 30.67C89.4251 30.67 90.1531 30.6613 90.8638 30.644C91.5918 30.6267 92.2331 30.6093 92.7878 30.592L98.2478 43.774L97.5978 44.372L102.824 30.67C103.118 30.67 103.422 30.67 103.734 30.67C104.046 30.67 104.358 30.67 104.67 30.67C105.432 30.67 106.178 30.6613 106.906 30.644C107.651 30.6267 108.266 30.6093 108.752 30.592Z" fill="white"/>
</svg>
