<svg width="40" height="40" viewBox="0 0 40 40" fill="none" xmlns="http://www.w3.org/2000/svg">
<circle cx="20" cy="20" r="20" fill="#C4C4C4"/>
<g clip-path="url(#clip0_1_197)">
<path d="M25.8027 13H15.1973C13.9858 13 13 13.9858 13 15.1973V25.8027C13 27.0142 13.9858 28 15.1973 28H25.8027C27.0142 28 28 27.0142 28 25.8027V15.1973C28 13.9858 27.0142 13 25.8027 13ZM20.5293 24.4258C18.3484 24.4258 16.5742 22.6516 16.5742 20.4707C16.5742 18.2898 18.3484 16.5156 20.5293 16.5156C22.7102 16.5156 24.4844 18.2898 24.4844 20.4707C24.4844 22.6516 22.7102 24.4258 20.5293 24.4258ZM24.9238 17.3945C24.1969 17.3945 23.6055 16.8031 23.6055 16.0762C23.6055 15.3492 24.1969 14.7578 24.9238 14.7578C25.6508 14.7578 26.2422 15.3492 26.2422 16.0762C26.2422 16.8031 25.6508 17.3945 24.9238 17.3945Z" fill="black"/>
<path d="M24.9238 15.6367C24.6813 15.6367 24.4844 15.8337 24.4844 16.0762C24.4844 16.3187 24.6813 16.5156 24.9238 16.5156C25.1663 16.5156 25.3633 16.3187 25.3633 16.0762C25.3633 15.8337 25.1663 15.6367 24.9238 15.6367Z" fill="black"/>
<path d="M20.5293 17.3945C18.8333 17.3945 17.4531 18.7747 17.4531 20.4707C17.4531 22.1667 18.8333 23.5469 20.5293 23.5469C22.2253 23.5469 23.6055 22.1667 23.6055 20.4707C23.6055 18.7747 22.2253 17.3945 20.5293 17.3945Z" fill="black"/>
</g>
<defs>
<clipPath id="clip0_1_197">
<rect width="15" height="15" fill="white" transform="translate(13 13)"/>
</clipPath>
</defs>
</svg>
