<svg width="10" height="12" viewBox="0 0 10 12" fill="none" xmlns="http://www.w3.org/2000/svg">
<path d="M5 0C2.60363 0 0.654053 1.94958 0.654053 4.34592C0.654053 7.31986 4.54325 11.6858 4.70884 11.8702C4.86437 12.0434 5.13591 12.0431 5.29116 11.8702C5.45675 11.6858 9.34595 7.31986 9.34595 4.34592C9.3459 1.94958 7.39634 0 5 0ZM5 6.53248C3.79433 6.53248 2.81347 5.55159 2.81347 4.34592C2.81347 3.14025 3.79435 2.15939 5 2.15939C6.20565 2.15939 7.18651 3.14027 7.18651 4.34595C7.18651 5.55162 6.20565 6.53248 5 6.53248Z" fill="white"/>
</svg>
