<svg width="12" height="12" viewBox="0 0 12 12" fill="none" xmlns="http://www.w3.org/2000/svg">
<path d="M11.9743 9.29781C11.9404 9.19554 11.7244 9.04488 11.3266 8.84619C11.2189 8.78357 11.0653 8.69846 10.8666 8.59049C10.6678 8.48252 10.4873 8.38303 10.3254 8.2921C10.1633 8.20121 10.0114 8.11314 9.86943 8.02804C9.84675 8.01099 9.77573 7.96135 9.65642 7.87879C9.53698 7.79646 9.43627 7.73535 9.35373 7.6955C9.27137 7.65589 9.19035 7.63595 9.1108 7.63595C8.99719 7.63595 8.85528 7.71696 8.68489 7.87879C8.5145 8.04082 8.3582 8.21682 8.21623 8.40733C8.07423 8.59774 7.92363 8.77375 7.76471 8.93569C7.60554 9.09769 7.47476 9.17861 7.37262 9.17861C7.32133 9.17861 7.25739 9.16432 7.18076 9.13611C7.10417 9.10772 7.0459 9.08339 7.0059 9.06378C6.96626 9.04375 6.89822 9.00411 6.80157 8.94425C6.70473 8.88458 6.65088 8.8519 6.63954 8.84619C5.86117 8.41428 5.19362 7.91995 4.63675 7.36332C4.08006 6.80636 3.58567 6.13887 3.15388 5.36041C3.14821 5.34904 3.11546 5.29504 3.05585 5.1985C2.99615 5.10188 2.95635 5.03379 2.93647 4.99391C2.91659 4.95417 2.89244 4.89591 2.86409 4.81922C2.83573 4.74253 2.82149 4.67865 2.82149 4.62746C2.82149 4.52525 2.90247 4.3945 3.06441 4.23539C3.22633 4.07638 3.40251 3.92575 3.59278 3.78381C3.78319 3.64187 3.9592 3.48557 4.12117 3.31518C4.28308 3.1447 4.36403 3.00273 4.36403 2.88912C4.36403 2.80963 4.34415 2.72858 4.30442 2.64622C4.26466 2.56368 4.20358 2.46297 4.12117 2.34359C4.03872 2.22428 3.98902 2.15332 3.97194 2.13049C3.88681 1.98855 3.79884 1.83658 3.70782 1.67464C3.61681 1.51272 3.51746 1.33225 3.40946 1.13341C3.30155 0.934661 3.21639 0.781198 3.15382 0.673257C2.95507 0.275613 2.80453 0.0596122 2.70223 0.0256419C2.66244 0.00859706 2.60274 0 2.52328 0C2.36978 0 2.16954 0.0283583 1.92241 0.0852542C1.67518 0.14206 1.48065 0.201643 1.33859 0.26424C1.05449 0.383494 0.753389 0.730063 0.435178 1.30383C0.145416 1.8378 0.000549316 2.36631 0.000549316 2.88897C0.000549316 3.04225 0.0104897 3.19139 0.0303704 3.3364C0.050251 3.48127 0.0857736 3.64465 0.136968 3.8265C0.188073 4.00829 0.229297 4.14333 0.260461 4.23127C0.291655 4.31928 0.349894 4.47692 0.435148 4.70426C0.520283 4.93155 0.571477 5.07068 0.588522 5.12182C0.787359 5.67866 1.02315 6.17576 1.29584 6.61329C1.7445 7.34051 2.35677 8.09207 3.1323 8.86766C3.90785 9.64318 4.65926 10.2554 5.38655 10.7043C5.82401 10.9769 6.3213 11.2127 6.87805 11.4117C6.92921 11.4286 7.06835 11.4797 7.29554 11.5651C7.52282 11.6503 7.68053 11.7086 7.76853 11.7398C7.85656 11.7711 7.99163 11.8124 8.17328 11.8636C8.35531 11.9147 8.51853 11.9503 8.6634 11.9703C8.80835 11.9899 8.95752 12 9.11083 12C9.63346 12 10.162 11.8551 10.6961 11.5653C11.2698 11.2473 11.6162 10.9461 11.7356 10.6618C11.7983 10.5199 11.8577 10.3253 11.9145 10.0781C11.9715 9.83095 11.9998 9.63074 11.9998 9.47727C12 9.39748 11.9914 9.33793 11.9743 9.29781Z" fill="white"/>
</svg>
