<svg width="40" height="40" viewBox="0 0 40 40" fill="none" xmlns="http://www.w3.org/2000/svg">
<circle cx="20" cy="20" r="20" fill="#C4C4C4"/>
<g clip-path="url(#clip0_1_186)">
<path d="M27.0002 15.8496C26.4481 16.0942 25.8558 16.2601 25.2334 16.3342C25.8689 15.9536 26.3553 15.35 26.5859 14.6329C25.9898 14.9853 25.3318 15.2412 24.6306 15.38C24.0692 14.781 23.2706 14.408 22.3848 14.408C20.6854 14.408 19.3076 15.7858 19.3076 17.4843C19.3076 17.7251 19.3348 17.9604 19.3873 18.1854C16.8302 18.057 14.5629 16.8319 13.0453 14.9703C12.7801 15.424 12.6292 15.9526 12.6292 16.5169C12.6292 17.5846 13.1728 18.5266 13.9977 19.0777C13.4934 19.0608 13.0191 18.9221 12.6039 18.6915V18.7299C12.6039 20.2203 13.6649 21.4641 15.0718 21.7472C14.8141 21.8166 14.5423 21.855 14.2611 21.855C14.0624 21.855 13.8702 21.8353 13.6818 21.7978C14.0736 23.021 15.2096 23.9105 16.5556 23.9349C15.503 24.7598 14.1758 25.25 12.7342 25.25C12.4858 25.25 12.2411 25.235 12.0002 25.2078C13.3622 26.0823 14.9791 26.5922 16.7169 26.5922C22.3774 26.5922 25.4715 21.9037 25.4715 17.8376L25.4612 17.4393C26.0657 17.0081 26.5887 16.4663 27.0002 15.8496Z" fill="black"/>
</g>
<defs>
<clipPath id="clip0_1_186">
<rect width="15" height="15" fill="white" transform="translate(12 13)"/>
</clipPath>
</defs>
</svg>
